<mxfile host="app.diagrams.net" agent="Mozilla/5.0 (Windows NT 10.0; Win64; x64) AppleWebKit/537.36 (KHTML, like Gecko) Chrome/134.0.0.0 Safari/537.36" version="26.1.0">
  <diagram name="第 1 页" id="RsSCYp8_lyTaL0R-eGZh">
    <mxGraphModel dx="545" dy="1522" grid="0" gridSize="10" guides="1" tooltips="1" connect="1" arrows="1" fold="1" page="1" pageScale="1" pageWidth="827" pageHeight="1169" background="none" math="0" shadow="0">
      <root>
        <mxCell id="0" />
        <mxCell id="1" parent="0" />
        <mxCell id="thxwzxnXI1OHp2ooGOBL-1" value="" style="rounded=1;whiteSpace=wrap;html=1;fillColor=#f5f5f5;fontColor=#333333;strokeColor=#666666;" vertex="1" parent="1">
          <mxGeometry x="270" y="-190" width="210" height="140" as="geometry" />
        </mxCell>
        <mxCell id="thxwzxnXI1OHp2ooGOBL-2" value="SDS数据结构" style="text;html=1;align=center;verticalAlign=middle;whiteSpace=wrap;rounded=0;" vertex="1" parent="1">
          <mxGeometry x="332.5" y="-190" width="85" height="30" as="geometry" />
        </mxCell>
        <mxCell id="thxwzxnXI1OHp2ooGOBL-3" value="len" style="rounded=0;whiteSpace=wrap;html=1;fillColor=#dae8fc;strokeColor=#6c8ebf;" vertex="1" parent="1">
          <mxGeometry x="297.5" y="-150" width="62.5" height="20" as="geometry" />
        </mxCell>
        <mxCell id="thxwzxnXI1OHp2ooGOBL-4" value="buf []" style="rounded=0;whiteSpace=wrap;html=1;fillColor=#dae8fc;strokeColor=#6c8ebf;" vertex="1" parent="1">
          <mxGeometry x="297.5" y="-90" width="62.5" height="20" as="geometry" />
        </mxCell>
        <mxCell id="thxwzxnXI1OHp2ooGOBL-5" value="alloc" style="rounded=0;whiteSpace=wrap;html=1;fillColor=#dae8fc;strokeColor=#6c8ebf;" vertex="1" parent="1">
          <mxGeometry x="297.5" y="-130" width="62.5" height="20" as="geometry" />
        </mxCell>
        <mxCell id="thxwzxnXI1OHp2ooGOBL-6" value="flags" style="rounded=0;whiteSpace=wrap;html=1;fillColor=#dae8fc;strokeColor=#6c8ebf;" vertex="1" parent="1">
          <mxGeometry x="297.5" y="-110" width="62.5" height="20" as="geometry" />
        </mxCell>
        <mxCell id="thxwzxnXI1OHp2ooGOBL-8" value="&lt;font style=&quot;font-size: 11px;&quot;&gt;sds类型&lt;/font&gt;" style="text;html=1;align=left;verticalAlign=middle;whiteSpace=wrap;rounded=0;" vertex="1" parent="1">
          <mxGeometry x="380" y="-110" width="80" height="20" as="geometry" />
        </mxCell>
        <mxCell id="thxwzxnXI1OHp2ooGOBL-10" value="&lt;font style=&quot;font-size: 11px;&quot;&gt;字节数组&lt;/font&gt;" style="text;html=1;align=left;verticalAlign=middle;whiteSpace=wrap;rounded=0;" vertex="1" parent="1">
          <mxGeometry x="380" y="-90" width="80" height="20" as="geometry" />
        </mxCell>
        <mxCell id="thxwzxnXI1OHp2ooGOBL-11" value="&lt;font style=&quot;font-size: 11px;&quot;&gt;分配的空间长度&lt;/font&gt;" style="text;html=1;align=left;verticalAlign=middle;whiteSpace=wrap;rounded=0;" vertex="1" parent="1">
          <mxGeometry x="380" y="-130" width="80" height="20" as="geometry" />
        </mxCell>
        <mxCell id="thxwzxnXI1OHp2ooGOBL-12" value="&lt;font style=&quot;font-size: 11px;&quot;&gt;字符串长度&lt;/font&gt;" style="text;html=1;align=left;verticalAlign=middle;whiteSpace=wrap;rounded=0;" vertex="1" parent="1">
          <mxGeometry x="380" y="-150" width="90" height="20" as="geometry" />
        </mxCell>
      </root>
    </mxGraphModel>
  </diagram>
</mxfile>
